<svg xmlns="http://www.w3.org/2000/svg" fill="none" viewBox="0 0 170 92"><rect width="169" height="91" x=".5" y=".5" stroke="#AFB1B8" rx="3.5"/><path fill="#AFB1B8" fill-rule="evenodd" d="m70 23 7.008 6.634L64 29.626v32.188h34V49.507l7 6.627V23H70Zm27.692 25.728-19.87-18.81h19.87v18.81Zm-6.169 8.377H69.38V35.459h1.565V55.64h20.578v1.465Zm-17.727 10.69L72.97 66.1h-.681l1.196 2.246v1.309h.617v-1.309L75.3 66.1h-.679l-.825 1.697Zm3.042-1.696h.146l1.343 3.555h-.644l-.288-.833h-1.376l-.287.833h-.642l1.338-3.555H76.838Zm-.652 2.236h1.041l-.52-1.508-.52 1.508Zm4.296-.588a10.738 10.738 0 0 1-.077-.1 1.82 1.82 0 0 1-.213-.35.86.86 0 0 1-.075-.35c0-.186.038-.346.114-.48a.77.77 0 0 1 .325-.307c.14-.073.304-.11.49-.11.181 0 .337.037.467.11a.766.766 0 0 1 .35.984.893.893 0 0 1-.17.254 1.723 1.723 0 0 1-.248.217l-.247.18.704.83a1.409 1.409 0 0 0 .153-.663h.508c0 .172-.017.336-.051.49a1.522 1.522 0 0 1-.26.587l.52.615h-.68l-.207-.243a1.384 1.384 0 0 1-.365.199 1.624 1.624 0 0 1-.551.093c-.236 0-.44-.044-.613-.13a.97.97 0 0 1-.4-.356.975.975 0 0 1-.14-.52c0-.145.03-.272.09-.381.061-.11.143-.213.247-.308.096-.087.206-.174.33-.261Zm.292.357-.074.053a.914.914 0 0 0-.193.203.59.59 0 0 0-.034.6.514.514 0 0 0 .198.203.65.65 0 0 0 .32.073c.135 0 .266-.03.393-.09a1.06 1.06 0 0 0 .18-.112l-.79-.93Zm.14-.65.218-.146a.791.791 0 0 0 .22-.2.444.444 0 0 0 .066-.25.354.354 0 0 0-.374-.342.362.362 0 0 0-.339.21.502.502 0 0 0 .015.435 1.444 1.444 0 0 0 .194.293Zm6.22 1.043h-.611a1.106 1.106 0 0 1-.112.393.553.553 0 0 1-.247.241.923.923 0 0 1-.422.083.748.748 0 0 1-.369-.085.707.707 0 0 1-.254-.242 1.193 1.193 0 0 1-.146-.373 2.365 2.365 0 0 1-.047-.489v-.3c0-.189.017-.356.052-.503.035-.148.088-.272.158-.373.07-.101.157-.178.261-.23a.81.81 0 0 1 .367-.078c.17 0 .309.03.415.088.105.057.185.14.239.249.055.109.091.24.107.393h.61a1.53 1.53 0 0 0-.2-.632 1.129 1.129 0 0 0-.454-.432 1.51 1.51 0 0 0-.717-.157c-.223 0-.424.04-.603.118-.178.078-.33.19-.457.339a1.533 1.533 0 0 0-.293.53c-.067.206-.1.437-.1.693v.295c0 .256.033.487.098.694.066.207.162.383.288.53a1.3 1.3 0 0 0 .451.336c.176.079.374.118.594.118.286 0 .53-.052.73-.157.2-.104.355-.246.466-.427.11-.182.176-.39.195-.622Zm3.39-.523v-.195c0-.269-.035-.509-.107-.72a1.56 1.56 0 0 0-.3-.545 1.276 1.276 0 0 0-.467-.344c-.18-.08-.38-.12-.6-.12-.218 0-.418.04-.598.12-.18.078-.335.193-.467.344-.13.15-.23.331-.302.545a2.241 2.241 0 0 0-.108.72v.195c0 .269.036.51.108.723a1.6 1.6 0 0 0 .307.544 1.344 1.344 0 0 0 1.065.462c.22 0 .42-.04.6-.118.18-.08.336-.194.464-.344.13-.15.23-.331.3-.544.07-.213.105-.454.105-.723Zm-.612-.2v.2c0 .199-.02.374-.059.527a1.157 1.157 0 0 1-.166.389.73.73 0 0 1-.269.236.815.815 0 0 1-.363.079.809.809 0 0 1-.362-.079.771.771 0 0 1-.273-.236 1.165 1.165 0 0 1-.171-.389 2.144 2.144 0 0 1-.059-.527v-.2c0-.199.02-.374.059-.525.04-.153.095-.28.169-.383a.729.729 0 0 1 .27-.235.787.787 0 0 1 .362-.08c.135 0 .256.027.364.08.107.052.197.13.27.235.075.102.132.23.169.383.04.151.059.326.059.525Z" clip-rule="evenodd"/></svg>